<svg width="8" height="16" viewBox="0 0 8 16" fill="none" xmlns="http://www.w3.org/2000/svg">
<path d="M1.42504 15.225C1.26671 15.225 1.10837 15.1667 0.983374 15.0417C0.741707 14.8 0.741707 14.4 0.983374 14.1583L6.41671 8.72502C6.81671 8.32502 6.81671 7.67502 6.41671 7.27502L0.983374 1.84168C0.741707 1.60002 0.741707 1.20002 0.983374 0.95835C1.22504 0.716683 1.62504 0.716683 1.86671 0.95835L7.30004 6.39168C7.72504 6.81668 7.96671 7.39168 7.96671 8.00002C7.96671 8.60835 7.73337 9.18335 7.30004 9.60835L1.86671 15.0417C1.74171 15.1584 1.58337 15.225 1.42504 15.225Z" fill="white"/>
</svg>
