<svg width="22" height="22" viewBox="0 0 22 22" fill="none" xmlns="http://www.w3.org/2000/svg">
<path d="M7.5 1.44L9 1L8.56 2.5L9 4L7.5 3.56L6 4L6.44 2.5L6 1L7.5 1.44Z" stroke="white" stroke-linecap="round" stroke-linejoin="round"/>
<path d="M2.5 6.44L4 6L3.56 7.5L4 9L2.5 8.56L1 9L1.44 7.5L1 6L2.5 6.44Z" stroke="white" stroke-linecap="round" stroke-linejoin="round"/>
<path d="M9.4293 16.6201C9.4293 17.7201 9.0093 18.77 8.2193 19.57C7.6093 20.18 6.7793 20.6001 5.7893 20.7301L3.3293 21.0001C1.9893 21.1501 0.839297 20.01 0.999297 18.65L1.2693 16.1901C1.5093 14.0001 3.3393 12.6001 5.2793 12.5601C5.4793 12.5501 5.6893 12.56 5.8793 12.57C6.7293 12.68 7.5593 13.0701 8.2393 13.7601C8.9093 14.4301 9.2893 15.21 9.3993 16.05C9.4093 16.24 9.4293 16.4301 9.4293 16.6201Z" stroke="white" stroke-width="1.5" stroke-linecap="round" stroke-linejoin="round"/>
<path d="M13.2417 13.47C13.2417 10.86 11.1217 8.73999 8.51172 8.73999" stroke="white" stroke-width="1.5" stroke-linecap="round" stroke-linejoin="round"/>
<path d="M20.8095 2.94C19.2695 6.78 15.4095 12 12.1795 14.59L10.2095 16.17C9.95953 16.35 9.70953 16.51 9.42953 16.62C9.42953 16.44 9.41953 16.24 9.38953 16.05C9.27953 15.21 8.89953 14.43 8.22953 13.76C7.54953 13.08 6.71953 12.68 5.86953 12.57C5.66953 12.56 5.46953 12.54 5.26953 12.56C5.37953 12.25 5.54953 11.96 5.75953 11.72L7.31953 9.75C9.89953 6.52 15.1395 2.64 18.9695 1.11C19.5595 0.889999 20.1295 1.05 20.4895 1.42C20.8695 1.79 21.0495 2.36 20.8095 2.94Z" stroke="white" stroke-width="1.5" stroke-linecap="round" stroke-linejoin="round"/>
</svg>
