<svg
  width="16"
  height="16"
  viewBox="0 0 16 16"
  fill="none"
  class="cursor-pointer"
  xmlns="http://www.w3.org/2000/svg"
>
  <path
    fill-rule="evenodd"
    clip-rule="evenodd"
    d="M0.833374 8.00004C0.833374 4.05723 4.05723 0.833374 8.00004 0.833374C11.9429 0.833374 15.1667 4.05723 15.1667 8.00004C15.1667 11.9429 11.9429 15.1667 8.00004 15.1667C4.05723 15.1667 0.833374 11.9429 0.833374 8.00004Z"
    fill="#8A8A8A"
  />
  <path
    fill-rule="evenodd"
    clip-rule="evenodd"
    d="M7.32943 11.3334C7.32943 10.9652 7.6279 10.6667 7.99609 10.6667H8.00208C8.37027 10.6667 8.66875 10.9652 8.66875 11.3334C8.66875 11.7016 8.37027 12 8.00208 12H7.99609C7.6279 12 7.32943 11.7016 7.32943 11.3334Z"
    fill="white"
  />
  <path
    fill-rule="evenodd"
    clip-rule="evenodd"
    d="M6.84263 5.09847C6.58916 5.33567 6.41733 5.70355 6.49539 6.26444C6.53345 6.53794 6.34258 6.79052 6.06908 6.82858C5.79557 6.86665 5.54299 6.67578 5.50493 6.40227C5.38506 5.54097 5.65294 4.84221 6.15936 4.36831C6.64932 3.90981 7.3201 3.70007 7.9624 3.70007C8.60493 3.70008 9.27671 3.90987 9.77107 4.36588C10.2814 4.83659 10.5605 5.53252 10.4539 6.39475C10.3846 6.95502 10.1952 7.35507 9.92434 7.6609C9.69777 7.91668 9.42462 8.08891 9.21982 8.21805C9.19553 8.23336 9.17221 8.24807 9.15004 8.26224C8.92232 8.40776 8.77676 8.51684 8.67217 8.67478C8.57286 8.82473 8.47892 9.06994 8.47892 9.53341C8.47892 9.80955 8.25506 10.0334 7.97892 10.0334C7.70278 10.0334 7.47892 9.80955 7.47892 9.53341C7.47892 8.93019 7.60316 8.4779 7.83841 8.12265C8.06837 7.77539 8.37375 7.57157 8.61156 7.4196C8.63429 7.40507 8.65633 7.39105 8.67772 7.37743C8.89757 7.23749 9.04869 7.14131 9.17578 6.99783C9.29777 6.86011 9.41408 6.65514 9.46146 6.27201C9.53072 5.71205 9.35367 5.34132 9.09305 5.10092C8.81651 4.84584 8.4027 4.70007 7.9624 4.70007C7.52186 4.70007 7.11256 4.84588 6.84263 5.09847Z"
    fill="white"
  />
</svg>
