<svg width="24" height="24" viewBox="0 0 24 24" fill="none" xmlns="http://www.w3.org/2000/svg">
<g id="vuesax/linear/gallery">
<g id="Subtract">
<path d="M20.6922 2.89358C20.3549 2.59324 19.9746 2.33551 19.5509 2.11974C19.1817 1.93179 18.7301 2.07866 18.5422 2.44778C18.3542 2.8169 18.5011 3.26849 18.8702 3.45644C19.1513 3.59955 19.4035 3.76558 19.629 3.95677L20.6922 2.89358Z" fill="white"/>
<path d="M8.22536 15.3604C8.00064 15.4213 7.7847 15.5176 7.58859 15.65L4 19.5858C3.96511 19.5012 3.28177 18.5 3.19911 18.2654C3.06147 17.8747 2.63319 17.6695 2.24251 17.8072C1.85183 17.9448 1.6467 18.3731 1.78434 18.7638C1.9391 19.2031 2.1309 19.6101 2.36382 19.9832C2.52402 20.2398 2.70057 20.4759 2.89315 20.6926L8.22536 15.3604Z" fill="white"/>
<path d="M4.50521 21.909L10.4456 15.9686L10.5686 16.07C10.8095 16.2769 11.0963 16.42 11.4006 16.4991C11.5957 16.5498 11.798 16.5742 12 16.5724C12.5028 16.5678 13.0041 16.4003 13.3886 16.07L17.5486 12.5C18.3286 11.83 19.5886 11.83 20.3686 12.5L21.25 13.257V11.25C21.25 10.8358 21.5858 10.5 22 10.5C22.4142 10.5 22.75 10.8358 22.75 11.25V15C22.75 17.574 22.2398 19.5709 20.9053 20.9053C19.5709 22.2398 17.574 22.75 15 22.75H9C7.21024 22.75 5.70257 22.5014 4.50521 21.909Z" fill="white"/>
<path d="M22 10.5C21.5858 10.5 21.25 10.1642 21.25 9.75V9C21.25 8.50915 21.2299 8.0535 21.1896 7.63108C21.1503 7.21874 21.4527 6.8526 21.8651 6.81328C22.2774 6.77397 22.6436 7.07637 22.6829 7.48871C22.7283 7.96512 22.75 8.46882 22.75 9V9.75C22.75 10.1642 22.4142 10.5 22 10.5Z" fill="white"/>
<path d="M20.9298 5.4844L21.9069 4.50734C22.0523 4.86451 21.9021 5.27963 21.5522 5.4578C21.3506 5.56049 21.1243 5.56323 20.9298 5.4844Z" fill="white"/>
<path d="M7.63108 2.81035C8.0535 2.77008 8.50915 2.75 9 2.75H10.5C10.9142 2.75 11.25 2.41421 11.25 2C11.25 1.58579 10.9142 1.25 10.5 1.25H9C8.46882 1.25 7.96512 1.2717 7.48871 1.31713C7.07637 1.35644 6.77397 1.72258 6.81328 2.13493C6.8526 2.54727 7.21874 2.84967 7.63108 2.81035Z" fill="white"/>
<path d="M13.5 1.25C13.0858 1.25 12.75 1.58579 12.75 2C12.75 2.41421 13.0858 2.75 13.5 2.75H15C15.4909 2.75 15.9465 2.77008 16.3689 2.81035C16.7813 2.84967 17.1474 2.54727 17.1867 2.13493C17.226 1.72258 16.9236 1.35644 16.5113 1.31713C16.0349 1.2717 15.5312 1.25 15 1.25H13.5Z" fill="white"/>
<path d="M5.12976 3.45644C5.49888 3.26849 5.64575 2.8169 5.4578 2.44778C5.26986 2.07866 4.81827 1.93179 4.44915 2.11974C3.41809 2.64473 2.64473 3.41809 2.11974 4.44915C1.93179 4.81827 2.07866 5.26986 2.44778 5.4578C2.8169 5.64575 3.26849 5.49888 3.45644 5.12976C3.83757 4.38124 4.38124 3.83757 5.12976 3.45644Z" fill="white"/>
<path d="M2.81035 7.63108C2.84967 7.21874 2.54727 6.8526 2.13493 6.81328C1.72258 6.77397 1.35644 7.07637 1.31713 7.48871C1.2717 7.96512 1.25 8.46882 1.25 9V10.5C1.25 10.9142 1.58579 11.25 2 11.25C2.41421 11.25 2.75 10.9142 2.75 10.5V9C2.75 8.50915 2.77008 8.0535 2.81035 7.63108Z" fill="white"/>
<path d="M2.75 13.5C2.75 13.0858 2.41421 12.75 2 12.75C1.58579 12.75 1.25 13.0858 1.25 13.5V15C1.25 15.433 1.26442 15.8477 1.29434 16.2441C1.32551 16.6571 1.68561 16.9667 2.09865 16.9355C2.51169 16.9043 2.82125 16.5442 2.79008 16.1312C2.76333 15.7767 2.75 15.4 2.75 15V13.5Z" fill="white"/>
<path d="M9 5.25C7.48122 5.25 6.25 6.48122 6.25 8C6.25 9.51878 7.48122 10.75 9 10.75C10.5188 10.75 11.75 9.51878 11.75 8C11.75 6.48122 10.5188 5.25 9 5.25Z" fill="white"/>
</g>
<path id="Vector 3130" d="M22.5 1.5L1.5 22.5" stroke="white" stroke-width="1.5" stroke-linecap="round"/>
</g>
</svg>
